<svg xmlns="http://www.w3.org/2000/svg" version="1.1" xmlns:xlink="http://www.w3.org/1999/xlink" 
xmlns:svgjs="http://svgjs.dev/svgjs" width="200" height="70" viewBox="0 0 2000 702">
<g transform="matrix(1,0,0,1,-1.2121194770285229,1.2002482154964014)">
<svg viewBox="0 0 396 139" data-background-color="#61777f" preserveAspectRatio="xMidYMid meet" 
height="702" width="2000" xmlns="http://www.w3.org/2000/svg" xmlns:xlink="http://www.w3.org/1999/xlink">
<g id="tight-bounds" transform="matrix(1,0,0,1,0.24000034354838817,-0.23765598568945734)"><svg viewBox="0 0 395.52 139.47531197137894" height="139.47531197137894" width="395.52"><g><svg viewBox="0 0 693.1512834833359 244.43135999999998" height="139.47531197137894" width="395.52"><g transform="matrix(1,0,0,1,0,9.54026300857366)"><svg viewBox="0 0 395.52 225.35083398285266" height="225.35083398285266" width="395.52"><g id="textblocktransform"><svg viewBox="0 0 395.52 225.35083398285266" height="225.35083398285266" width="395.52" id="textblock"><g><svg viewBox="0 0 395.52 225.35083398285266" height="225.35083398285266" width="395.52"><g transform="matrix(1,0,0,1,0,0)"><svg width="395.52" viewBox="5.050000190734863 -35.689998626708984 62.64999771118164 35.689998626708984" height="225.35083398285266" data-palette-color="#ffffff"><path d="M22.34 0L20.75 0 7.45-32.96 7.25-32.96Q7.45-29.93 7.45-26.76L7.45-26.76 7.45 0 5.05 0 5.05-35.69 8.91-35.69 21.56-4.3 21.7-4.3 34.35-35.69 38.11-35.69 38.11 0 35.6 0 35.6-27.05Q35.6-29.88 35.89-32.91L35.89-32.91 35.69-32.91 22.34 0ZM67.7 0L48.19 0 48.19-35.69 50.68-35.69 50.68-2.34 67.7-2.34 67.7 0Z" opacity="1" transform="matrix(1,0,0,1,0,0)" fill="#ffffff" class="undefined-text-0" data-fill-palette-color="primary" id="text-0"></path></svg></g></svg></g></svg></g></svg></g><g transform="matrix(1,0,0,1,448.7199234833359,0)"><svg viewBox="0 0 244.43135999999998 244.43135999999998" height="244.43135999999998" width="244.43135999999998"><g data-palette-color="#ffffff"><rect width="66.8112384" height="244.43135999999998" fill="#ffffff" stroke="transparent" data-fill-palette-color="accent" x="0" fill-opacity="1"></rect><rect width="66.8112384" height="244.43135999999998" fill="#ffffff" stroke="transparent" data-fill-palette-color="accent" x="81.47711999999999" fill-opacity="0.75"></rect><rect width="66.8112384" height="244.43135999999998" fill="#ffffff" stroke="transparent" data-fill-palette-color="accent" x="162.95423999999997" fill-opacity="0.5"></rect></g></svg></g></svg></g><defs></defs></svg><rect width="395.52" height="139.47531197137894" fill="none" stroke="none" 
visibility="hidden"></rect></g></svg></g></svg>